<?xml version="1.0" encoding="UTF-8"?>
<!DOCTYPE svg PUBLIC "-//W3C//DTD SVG 1.1//EN" "http://www.w3.org/Graphics/SVG/1.1/DTD/svg11.dtd">
<svg xmlns="http://www.w3.org/2000/svg" version="1.1" width="478px" height="335px" style="shape-rendering:geometricPrecision; text-rendering:geometricPrecision; image-rendering:optimizeQuality; fill-rule:evenodd; clip-rule:evenodd" xmlns:xlink="http://www.w3.org/1999/xlink">
<g><path style="opacity:1" fill="#1d1d25" d="M -0.5,-0.5 C 158.833,-0.5 318.167,-0.5 477.5,-0.5C 477.5,111.167 477.5,222.833 477.5,334.5C 318.167,334.5 158.833,334.5 -0.5,334.5C -0.5,222.833 -0.5,111.167 -0.5,-0.5 Z"/></g>
<g><path style="opacity:1" fill="#131317" d="M 56.5,30.5 C 176.835,30.1667 297.169,30.5 417.5,31.5C 357.333,31.8333 297.167,32.1667 237,32.5C 176.496,32.5 116.33,31.8333 56.5,30.5 Z"/></g>
<g><path style="opacity:1" fill="#d3af7c" d="M 55.5,33.5 C 177.167,33.3333 298.834,33.5 420.5,34C 421,34.5 421.5,35 422,35.5C 422.667,107.833 422.667,180.167 422,252.5C 421.25,253.126 420.416,253.626 419.5,254C 298.167,254.667 176.833,254.667 55.5,254C 54.6667,253.167 53.8333,252.333 53,251.5C 52.3333,179.833 52.3333,108.167 53,36.5C 54.045,35.6266 54.8783,34.6266 55.5,33.5 Z"/></g>
<g><path style="opacity:1" fill="#463b2b" d="M 63.5,43.5 C 63.5,110.167 63.5,176.833 63.5,243.5C 175.833,243.5 288.167,243.5 400.5,243.5C 400.833,243.5 401.167,243.5 401.5,243.5C 405.167,243.5 408.833,243.5 412.5,243.5C 412.5,176.833 412.5,110.167 412.5,43.5C 413.499,110.331 413.832,177.331 413.5,244.5C 296.5,244.5 179.5,244.5 62.5,244.5C 62.1675,177.331 62.5008,110.331 63.5,43.5 Z"/></g>
<g><path style="opacity:1" fill="#0c0c0f" d="M 63.5,43.5 C 179.833,43.5 296.167,43.5 412.5,43.5C 412.5,110.167 412.5,176.833 412.5,243.5C 408.833,243.5 405.167,243.5 401.5,243.5C 403.607,242.532 405.941,242.198 408.5,242.5C 409.824,176.694 409.824,111.027 408.5,45.5C 294.185,46.8295 179.852,46.8295 65.5,45.5C 66.8246,110.34 66.8246,175.173 65.5,240C 65.7483,241.749 66.7483,242.582 68.5,242.5C 179.335,242.167 290.001,242.501 400.5,243.5C 288.167,243.5 175.833,243.5 63.5,243.5C 63.5,176.833 63.5,110.167 63.5,43.5 Z"/></g>
<g><path style="opacity:1" fill="#121217" d="M 408.5,45.5 C 409.824,111.027 409.824,176.694 408.5,242.5C 405.941,242.198 403.607,242.532 401.5,243.5C 401.167,243.5 400.833,243.5 400.5,243.5C 290.001,242.501 179.335,242.167 68.5,242.5C 68.6107,241.883 68.944,241.383 69.5,241C 181.833,240.5 294.166,240.333 406.5,240.5C 405.849,175.353 406.515,110.353 408.5,45.5 Z"/></g>
<g><path style="opacity:1" fill="#1d1d25" d="M 408.5,45.5 C 406.515,110.353 405.849,175.353 406.5,240.5C 294.166,240.333 181.833,240.5 69.5,241C 68.944,241.383 68.6107,241.883 68.5,242.5C 66.7483,242.582 65.7483,241.749 65.5,240C 66.8246,175.173 66.8246,110.34 65.5,45.5C 179.852,46.8295 294.185,46.8295 408.5,45.5 Z"/></g>
<g><path style="opacity:1" fill="#89898d" d="M 326.5,220.5 C 330.97,219.514 335.637,219.181 340.5,219.5C 340.768,221.099 340.434,222.432 339.5,223.5C 339.5,222.5 339.5,221.5 339.5,220.5C 335.167,220.5 330.833,220.5 326.5,220.5 Z"/></g>
<g><path style="opacity:1" fill="#68686d" d="M 196.5,210.5 C 194.429,211.809 191.929,212.475 189,212.5C 186.31,212.497 183.81,212.164 181.5,211.5C 186.595,211.779 191.595,211.445 196.5,210.5 Z"/></g>
<g><path style="opacity:1" fill="#f7f7f7" d="M 326.5,220.5 C 330.833,220.5 335.167,220.5 339.5,220.5C 339.5,221.5 339.5,222.5 339.5,223.5C 337.929,226.231 335.595,228.065 332.5,229C 322.58,231.506 312.913,230.839 303.5,227C 294.666,217.671 296,210.004 307.5,204C 318.47,200.813 328.637,202.313 338,208.5C 340.006,211.536 340.84,214.869 340.5,218.5C 331.143,218.168 321.81,218.502 312.5,219.5C 315.975,223.884 320.308,224.718 325.5,222C 326.056,221.617 326.389,221.117 326.5,220.5 Z"/></g>
<g><path style="opacity:1" fill="#27272f" d="M 315.5,209.5 C 318.187,209.336 320.854,209.503 323.5,210C 324.357,210.689 325.023,211.522 325.5,212.5C 321.205,213.661 316.871,213.828 312.5,213C 313.365,211.641 314.365,210.474 315.5,209.5 Z"/></g>
<g><path style="opacity:1" fill="#f7f7f7" d="M 249.5,202.5 C 255.871,201.714 261.704,203.048 267,206.5C 273.378,202.309 280.211,201.476 287.5,204C 289.333,205.167 290.833,206.667 292,208.5C 292.5,215.492 292.666,222.492 292.5,229.5C 287.833,229.5 283.167,229.5 278.5,229.5C 278.666,223.824 278.499,218.157 278,212.5C 275,209.833 272,209.833 269,212.5C 268.501,218.157 268.334,223.824 268.5,229.5C 263.5,229.5 258.5,229.5 253.5,229.5C 253.666,223.491 253.499,217.491 253,211.5C 250.534,210.212 248.034,210.212 245.5,211.5C 244.504,217.463 244.171,223.463 244.5,229.5C 239.5,229.5 234.5,229.5 229.5,229.5C 229.5,220.833 229.5,212.167 229.5,203.5C 233.514,203.334 237.514,203.501 241.5,204C 242.126,204.75 242.626,205.584 243,206.5C 245.314,205.267 247.481,203.933 249.5,202.5 Z"/></g>
<g><path style="opacity:1" fill="#f6f6f6" d="M 196.5,210.5 C 191.595,211.445 186.595,211.779 181.5,211.5C 182.211,207.618 184.544,205.118 188.5,204C 197.931,201.79 207.264,202.124 216.5,205C 217.5,205.833 218.5,206.667 219.5,207.5C 220.283,212.447 220.783,217.447 221,222.5C 222.356,223.38 223.856,223.714 225.5,223.5C 225.756,225.792 225.423,227.959 224.5,230C 218.309,231.169 212.476,230.335 207,227.5C 199.666,230.736 192.166,231.236 184.5,229C 179.167,224.667 179.167,220.333 184.5,216C 186.5,215.333 188.5,214.667 190.5,214C 195.864,213.829 201.198,213.329 206.5,212.5C 206.023,211.522 205.357,210.689 204.5,210C 201.633,209.199 198.966,209.366 196.5,210.5 Z"/></g>
<g><path style="opacity:1" fill="#25252d" d="M 198.5,218.5 C 201.167,218.5 203.833,218.5 206.5,218.5C 206.703,220.39 206.037,221.89 204.5,223C 201.518,223.498 198.518,223.665 195.5,223.5C 195.31,221.041 196.31,219.374 198.5,218.5 Z"/></g>
<g><path style="opacity:1" fill="#fafafa" d="M 94.5,195.5 C 100.842,195.334 107.175,195.5 113.5,196C 119.5,207 125.5,218 131.5,229C 125.833,229.667 120.167,229.667 114.5,229C 113.707,227.915 113.04,226.748 112.5,225.5C 106.863,224.337 101.196,224.17 95.5,225C 94.7069,226.085 94.0402,227.252 93.5,228.5C 88.1667,229.833 82.8333,229.833 77.5,228.5C 83.4479,217.603 89.1145,206.603 94.5,195.5 Z"/></g>
<g><path style="opacity:1" fill="#26262d" d="M 103.5,206.5 C 105.378,209.245 107.045,212.245 108.5,215.5C 105.216,216.657 101.882,216.824 98.5,216C 100.307,212.885 101.973,209.719 103.5,206.5 Z"/></g>
<g><path style="opacity:1" fill="#f9f9f9" d="M 372.5,193.5 C 377.167,193.5 381.833,193.5 386.5,193.5C 386.5,205.5 386.5,217.5 386.5,229.5C 381.795,229.965 377.295,229.299 373,227.5C 365.898,231.228 358.732,231.395 351.5,228C 343.587,220.3 343.587,212.633 351.5,205C 358.475,201.512 365.308,201.679 372,205.5C 372.499,201.514 372.666,197.514 372.5,193.5 Z"/></g>
<g><path style="opacity:1" fill="#22222a" d="M 363.5,209.5 C 370.88,209.043 373.713,212.376 372,219.5C 370.179,222.991 367.346,224.157 363.5,223C 362.333,222.5 361.5,221.667 361,220.5C 360.333,217.5 360.333,214.5 361,211.5C 361.995,210.934 362.828,210.267 363.5,209.5 Z"/></g>
<g><path style="opacity:1" fill="#f7f7f7" d="M 134.5,193.5 C 139.5,193.5 144.5,193.5 149.5,193.5C 149.334,197.514 149.501,201.514 150,205.5C 157.557,201.341 164.891,201.674 172,206.5C 173.432,214.054 173.932,221.721 173.5,229.5C 168.833,229.5 164.167,229.5 159.5,229.5C 159.666,223.824 159.499,218.157 159,212.5C 156.447,210.271 153.614,209.938 150.5,211.5C 149.504,217.463 149.171,223.463 149.5,229.5C 144.5,229.5 139.5,229.5 134.5,229.5C 134.5,217.5 134.5,205.5 134.5,193.5 Z"/></g>
<g><path style="opacity:1" fill="#9f9fa2" d="M 270.5,151.5 C 268.254,150.893 265.921,150.56 263.5,150.5C 261.048,150.539 259.048,151.206 257.5,152.5C 256.596,151.791 256.263,150.791 256.5,149.5C 261.619,148.897 266.285,149.564 270.5,151.5 Z"/></g>
<g><path style="opacity:1" fill="#89898d" d="M 328.5,149.5 C 332.97,148.514 337.637,148.181 342.5,148.5C 342.768,150.099 342.434,151.432 341.5,152.5C 341.5,151.5 341.5,150.5 341.5,149.5C 337.167,149.5 332.833,149.5 328.5,149.5 Z"/></g>
<g><path style="opacity:1" fill="#68686d" d="M 158.5,139.5 C 156.429,140.809 153.929,141.475 151,141.5C 148.31,141.497 145.81,141.164 143.5,140.5C 148.595,140.779 153.595,140.445 158.5,139.5 Z"/></g>
<g><path style="opacity:1" fill="#f6f6f7" d="M 366.5,131.5 C 369.5,131.5 372.5,131.5 375.5,131.5C 375.5,134.5 375.5,137.5 375.5,140.5C 371.161,139.846 367.327,140.846 364,143.5C 363.501,148.489 363.334,153.489 363.5,158.5C 358.5,158.5 353.5,158.5 348.5,158.5C 348.5,149.833 348.5,141.167 348.5,132.5C 352.514,132.334 356.514,132.501 360.5,133C 361.025,133.692 361.692,134.192 362.5,134.5C 363.901,133.479 365.235,132.479 366.5,131.5 Z"/></g>
<g><path style="opacity:1" fill="#f7f7f7" d="M 328.5,149.5 C 332.833,149.5 337.167,149.5 341.5,149.5C 341.5,150.5 341.5,151.5 341.5,152.5C 339.929,155.231 337.595,157.065 334.5,158C 324.58,160.506 314.913,159.839 305.5,156C 296.666,146.671 298,139.004 309.5,133C 320.47,129.813 330.637,131.313 340,137.5C 342.006,140.536 342.84,143.869 342.5,147.5C 333.143,147.168 323.81,147.502 314.5,148.5C 317.975,152.884 322.308,153.718 327.5,151C 328.056,150.617 328.389,150.117 328.5,149.5 Z"/></g>
<g><path style="opacity:1" fill="#27272f" d="M 317.5,138.5 C 320.187,138.336 322.854,138.503 325.5,139C 326.357,139.689 327.023,140.522 327.5,141.5C 323.205,142.661 318.871,142.828 314.5,142C 315.365,140.641 316.365,139.474 317.5,138.5 Z"/></g>
<g><path style="opacity:1" fill="#f3f3f4" d="M 257.5,152.5 C 259.048,151.206 261.048,150.539 263.5,150.5C 265.921,150.56 268.254,150.893 270.5,151.5C 274.123,152.758 277.79,152.758 281.5,151.5C 275.311,149.759 268.977,148.259 262.5,147C 257.962,145.287 256.462,142.12 258,137.5C 259.731,135.383 261.898,133.883 264.5,133C 273.76,130.528 282.76,131.195 291.5,135C 293.607,136.264 294.607,138.097 294.5,140.5C 290.154,140.666 285.821,140.499 281.5,140C 278.624,137.493 275.457,136.993 272,138.5C 271.544,139.744 272.044,140.577 273.5,141C 278.882,141.307 284.215,141.974 289.5,143C 295.331,145.172 296.831,149.005 294,154.5C 291.228,156.761 288.062,158.261 284.5,159C 276.161,160.315 268.161,159.315 260.5,156C 259.29,154.961 258.29,153.794 257.5,152.5 Z"/></g>
<g><path style="opacity:1" fill="#f9f9f9" d="M 187.5,133.5 C 192.64,132.512 197.974,132.179 203.5,132.5C 204.765,137.293 206.431,141.959 208.5,146.5C 210.599,142.034 212.599,137.534 214.5,133C 219.533,132.171 224.533,132.338 229.5,133.5C 230.854,138.072 232.688,142.405 235,146.5C 236.642,141.903 238.476,137.403 240.5,133C 245.167,132.333 249.833,132.333 254.5,133C 250.294,141.246 245.961,149.413 241.5,157.5C 236.5,158.833 231.5,158.833 226.5,157.5C 224.764,153.126 222.931,148.793 221,144.5C 219.069,148.793 217.236,153.126 215.5,157.5C 210.5,158.833 205.5,158.833 200.5,157.5C 196.138,149.438 191.805,141.438 187.5,133.5 Z"/></g>
<g><path style="opacity:1" fill="#f6f6f6" d="M 158.5,139.5 C 153.595,140.445 148.595,140.779 143.5,140.5C 144.211,136.618 146.544,134.118 150.5,133C 159.931,130.79 169.264,131.124 178.5,134C 179.5,134.833 180.5,135.667 181.5,136.5C 182.283,141.447 182.783,146.447 183,151.5C 184.356,152.38 185.856,152.714 187.5,152.5C 187.756,154.792 187.423,156.959 186.5,159C 180.309,160.169 174.476,159.335 169,156.5C 161.666,159.736 154.166,160.236 146.5,158C 141.167,153.667 141.167,149.333 146.5,145C 148.5,144.333 150.5,143.667 152.5,143C 157.864,142.829 163.198,142.329 168.5,141.5C 168.023,140.522 167.357,139.689 166.5,139C 163.633,138.199 160.966,138.366 158.5,139.5 Z"/></g>
<g><path style="opacity:1" fill="#25252d" d="M 160.5,147.5 C 163.167,147.5 165.833,147.5 168.5,147.5C 168.703,149.39 168.037,150.89 166.5,152C 163.518,152.498 160.518,152.665 157.5,152.5C 157.31,150.041 158.31,148.374 160.5,147.5 Z"/></g>
<g><path style="opacity:1" fill="#f9f9fa" d="M 86.5,124.5 C 91.8333,124.5 97.1667,124.5 102.5,124.5C 102.334,129.179 102.501,133.845 103,138.5C 108.408,133.88 113.908,129.38 119.5,125C 125.833,124.333 132.167,124.333 138.5,125C 133.313,129.688 127.98,134.188 122.5,138.5C 127.98,145.148 133.647,151.648 139.5,158C 133.167,158.667 126.833,158.667 120.5,158C 117.324,153.994 113.991,150.16 110.5,146.5C 108.33,148.086 105.996,149.42 103.5,150.5C 102.52,153.086 102.187,155.753 102.5,158.5C 97.1667,158.5 91.8333,158.5 86.5,158.5C 86.5,147.167 86.5,135.833 86.5,124.5 Z"/></g>
<g><path style="opacity:1" fill="#ba2f44" d="M 227.5,107.5 C 227.5,110.5 227.5,113.5 227.5,116.5C 228.5,116.5 229.5,116.5 230.5,116.5C 228.712,117.622 226.712,117.789 224.5,117C 222.156,115.815 221.323,113.982 222,111.5C 223.432,109.561 225.265,108.228 227.5,107.5 Z"/></g>
<g><path style="opacity:1" fill="#cd473c" d="M 237.5,99.5 C 236.489,103.112 236.322,106.779 237,110.5C 237.383,111.056 237.883,111.389 238.5,111.5C 236.371,113.95 233.704,115.617 230.5,116.5C 229.5,116.5 228.5,116.5 227.5,116.5C 227.5,113.5 227.5,110.5 227.5,107.5C 230.794,104.844 234.127,102.178 237.5,99.5 Z"/></g>
<g><path style="opacity:1" fill="#df6930" d="M 242.5,93.5 C 242.414,97.8566 242.08,102.19 241.5,106.5C 242.5,106.5 243.5,106.5 244.5,106.5C 242.909,108.633 240.909,110.299 238.5,111.5C 237.883,111.389 237.383,111.056 237,110.5C 236.322,106.779 236.489,103.112 237.5,99.5C 239.167,97.5 240.833,95.5 242.5,93.5 Z"/></g>
<g><path style="opacity:1" fill="#ec8622" d="M 242.5,90.5 C 245.274,91.7226 247.941,93.2226 250.5,95C 253.311,98.2935 252.978,101.294 249.5,104C 247.922,105.094 246.255,105.928 244.5,106.5C 243.5,106.5 242.5,106.5 241.5,106.5C 242.08,102.19 242.414,97.8566 242.5,93.5C 242.5,92.5 242.5,91.5 242.5,90.5 Z"/></g>
<g><path style="opacity:1" fill="#28b5b7" d="M 211.5,89.5 C 212.167,89.5 212.5,89.8333 212.5,90.5C 212.498,94.1645 211.165,97.1645 208.5,99.5C 207.128,98.4884 205.795,97.4884 204.5,96.5C 206.309,94.9009 207.642,92.9009 208.5,90.5C 209.417,89.8728 210.417,89.5394 211.5,89.5 Z"/></g>
<g><path style="opacity:1" fill="#bc2d44" d="M 232.5,82.5 C 236.238,84.697 239.571,87.3637 242.5,90.5C 242.5,91.5 242.5,92.5 242.5,93.5C 240.833,95.5 239.167,97.5 237.5,99.5C 235.194,97.8606 233.194,95.8606 231.5,93.5C 232.767,94.087 233.767,94.087 234.5,93.5C 233.648,89.8691 232.981,86.2024 232.5,82.5 Z"/></g>
<g><path style="opacity:1" fill="#1d89b4" d="M 201.5,82.5 C 204.871,84.8458 208.204,87.1792 211.5,89.5C 210.417,89.5394 209.417,89.8728 208.5,90.5C 207.642,92.9009 206.309,94.9009 204.5,96.5C 201.795,94.4884 199.128,92.4884 196.5,90.5C 197.135,87.2384 198.802,84.5718 201.5,82.5 Z"/></g>
<g><path style="opacity:1" fill="#cf523e" d="M 230.5,81.5 C 231.492,81.3284 232.158,81.6618 232.5,82.5C 232.981,86.2024 233.648,89.8691 234.5,93.5C 233.767,94.087 232.767,94.087 231.5,93.5C 229.833,92.8333 228.167,92.1667 226.5,91.5C 227.276,87.9475 228.609,84.6142 230.5,81.5 Z"/></g>
<g><path style="opacity:1" fill="#1ad0b5" d="M 195.5,89.5 C 184.068,84.8581 183.735,79.8581 194.5,74.5C 195.496,74.5858 196.329,74.2524 197,73.5C 197.841,79.0908 197.341,84.4241 195.5,89.5 Z"/></g>
<g><path style="opacity:1" fill="#1dafb4" d="M 205.5,66.5 C 205.923,68.6621 206.59,71.1621 207.5,74C 206.663,75.0113 206.33,76.1779 206.5,77.5C 205.027,79.3947 203.36,81.0613 201.5,82.5C 198.802,84.5718 197.135,87.2384 196.5,90.5C 195.833,90.5 195.5,90.1667 195.5,89.5C 197.341,84.4241 197.841,79.0908 197,73.5C 196.329,74.2524 195.496,74.5858 194.5,74.5C 197.597,71.1116 201.264,68.4449 205.5,66.5 Z"/></g>
<g><path style="opacity:1" fill="#1c8cb2" d="M 206.5,77.5 C 206.33,76.1779 206.663,75.0113 207.5,74C 206.59,71.1621 205.923,68.6621 205.5,66.5C 208.204,63.6967 211.537,62.8634 215.5,64C 217.648,66.0749 217.982,68.4082 216.5,71C 213.309,73.4262 209.975,75.5928 206.5,77.5 Z"/></g>
<g><path style="opacity:1" fill="#f6f6f6" d="M 230.5,81.5 C 228.609,84.6142 227.276,87.9475 226.5,91.5C 224.549,93.48 223.049,95.8133 222,98.5C 219.817,104.232 217.484,109.898 215,115.5C 211.667,118.167 208.333,118.167 205,115.5C 204.333,113.833 204.333,112.167 205,110.5C 207.064,107.14 208.231,103.474 208.5,99.5C 211.165,97.1645 212.498,94.1645 212.5,90.5C 216.814,81.9373 221.147,73.2706 225.5,64.5C 228.937,62.9216 232.104,63.255 235,65.5C 235.667,67.1667 235.667,68.8333 235,70.5C 232.928,73.9712 231.428,77.6379 230.5,81.5 Z"/></g>
<g><path style="opacity:1" fill="#d5b07d" d="M 441.5,269.5 C 440.923,277.731 438.256,285.231 433.5,292C 301.833,292.667 170.167,292.667 38.5,292C 34.7582,286.014 31.4249,279.847 28.5,273.5C 27.6964,266.806 30.6964,263.972 37.5,265C 92.8333,264.333 148.167,264.333 203.5,265C 205.743,267.488 207.743,270.154 209.5,273C 233.166,274.346 256.833,274.512 280.5,273.5C 282.306,270.528 284.306,267.695 286.5,265C 334.833,264.333 383.167,264.333 431.5,265C 434.576,265.346 437.576,266.012 440.5,267C 441.252,267.671 441.586,268.504 441.5,269.5 Z"/></g>
<g><path style="opacity:1" fill="#120f0c" d="M 441.5,269.5 C 442.822,269.33 443.989,269.663 445,270.5C 446.213,273.768 446.546,277.101 446,280.5C 443.262,285.11 440.262,289.443 437,293.5C 435.052,294.109 433.218,294.776 431.5,295.5C 303.188,296.493 174.855,296.826 46.5,296.5C 45.4168,296.539 44.4168,296.873 43.5,297.5C 41.6954,295.407 39.3621,294.24 36.5,294C 34.4348,290.261 31.6015,287.095 28,284.5C 27.2652,282.129 26.4318,279.795 25.5,277.5C 26.5207,276.099 27.5207,274.765 28.5,273.5C 31.4249,279.847 34.7582,286.014 38.5,292C 170.167,292.667 301.833,292.667 433.5,292C 438.256,285.231 440.923,277.731 441.5,269.5 Z"/></g>
<g><path style="opacity:1" fill="#141419" d="M 431.5,295.5 C 429.64,296.032 427.64,297.199 425.5,299C 299.833,299.667 174.167,299.667 48.5,299C 47.244,298.583 46.5774,297.75 46.5,296.5C 174.855,296.826 303.188,296.493 431.5,295.5 Z"/></g>
</svg>
